<?xml version="1.0" encoding="UTF-8"?>
<svg version="1.1" xmlns="http://www.w3.org/2000/svg" width="512" height="512">
<path d="M0 0 C0.99422974 0.00215515 1.98845947 0.0043103 3.01281738 0.00653076 C17.48109955 0.05686686 31.66189071 0.35398296 45.875 3.3125 C46.85130371 3.51117676 47.82760742 3.70985352 48.83349609 3.91455078 C97.21339984 14.03634541 141.2005519 35.95291013 176.875 70.3125 C177.8640332 71.26068604 177.8640332 71.26068604 178.87304688 72.22802734 C188.36130305 81.37247479 197.1012044 90.66984009 204.875 101.3125 C205.73306152 102.46355017 206.59113451 103.61459177 207.44921875 104.765625 C213.48736829 112.95680614 218.84595521 121.47054105 223.875 130.3125 C224.23948242 130.94430176 224.60396484 131.57610352 224.97949219 132.22705078 C246.4740329 169.78084014 256.35126533 212.44304389 256.1875 255.4375 C256.18476578 256.9278476 256.18476578 256.9278476 256.18197632 258.44830322 C256.13719978 272.942192 255.67610213 287.05386097 252.875 301.3125 C252.71402832 302.20807617 252.55305664 303.10365234 252.38720703 304.02636719 C244.49797508 347.63313051 224.80850867 388.77106217 195.875 422.3125 C195.24078125 423.05757813 194.6065625 423.80265625 193.953125 424.5703125 C182.14198485 438.07529833 169.39139772 450.74668743 154.875 461.3125 C153.72505169 462.16899066 152.57531411 463.02576433 151.42578125 463.8828125 C143.23410474 469.9234414 134.71854922 475.28255071 125.875 480.3125 C125.24319824 480.67698242 124.61139648 481.04146484 123.96044922 481.41699219 C97.93166464 496.31500327 68.51361377 505.96041257 38.875 510.3125 C37.67254639 510.48910156 36.47009277 510.66570312 35.23120117 510.84765625 C23.51493596 512.45161689 11.87584274 512.71324553 0.0625 512.6875 C-0.92433777 512.68662384 -1.91117554 512.68574768 -2.92791748 512.68484497 C-67.88219852 512.49532667 -130.29571624 487.41579016 -177.125 442.3125 C-177.78435547 441.68037598 -178.44371094 441.04825195 -179.12304688 440.39697266 C-188.61130305 431.25252521 -197.3512044 421.95515991 -205.125 411.3125 C-205.98306152 410.16144983 -206.84113451 409.01040823 -207.69921875 407.859375 C-213.73736829 399.66819386 -219.09595521 391.15445895 -224.125 382.3125 C-224.48948242 381.68069824 -224.85396484 381.04889648 -225.22949219 380.39794922 C-240.15973018 354.31285999 -249.63885054 324.97664886 -254.125 295.3125 C-254.38990234 293.62882324 -254.38990234 293.62882324 -254.66015625 291.91113281 C-256.3170586 280.29802257 -256.52373513 268.78070055 -256.5 257.0625 C-256.49945618 256.05048523 -256.49891235 255.03847046 -256.49835205 253.99578857 C-256.4576051 237.46132605 -255.53386907 221.54185136 -252.125 205.3125 C-251.91601074 204.29720215 -251.70702148 203.2819043 -251.49169922 202.23583984 C-242.71380189 160.92383315 -223.71113066 122.2919774 -196.125 90.3125 C-195.49078125 89.56742187 -194.8565625 88.82234375 -194.203125 88.0546875 C-182.39198485 74.54970167 -169.64139772 61.87831257 -155.125 51.3125 C-153.97505169 50.45600934 -152.82531411 49.59923567 -151.67578125 48.7421875 C-143.48410474 42.7015586 -134.96854922 37.34244929 -126.125 32.3125 C-125.49319824 31.94801758 -124.86139648 31.58353516 -124.21044922 31.20800781 C-98.17975097 16.30890142 -68.76448404 6.66904478 -39.125 2.3125 C-37.32675781 2.04651001 -37.32675781 2.04651001 -35.4921875 1.77514648 C-23.66616559 0.14661384 -11.92341476 -0.04652724 0 0 Z M-127.125 142.3125 C-130.9803333 146.83679524 -134.5909019 151.53480544 -138.125 156.3125 C-138.5492627 156.88178223 -138.97352539 157.45106445 -139.41064453 158.03759766 C-165.01989447 192.89379834 -174.95123214 238.65472061 -169 281.25 C-162.10907655 325.63149203 -137.95799687 366.19626753 -101.93359375 392.99560547 C-96.82723511 396.71370732 -91.56657279 400.10690899 -86.125 403.3125 C-85.43873535 403.71855469 -84.7524707 404.12460937 -84.04541016 404.54296875 C-65.16585726 415.52682141 -44.65231488 421.94226475 -23.125 425.3125 C-21.30742187 425.60060547 -21.30742187 425.60060547 -19.453125 425.89453125 C22.91012294 430.87629029 68.4464774 418.95144846 102.18359375 392.66162109 C115.74013471 381.84847944 127.55304558 370.26659637 137.875 356.3125 C138.51139404 355.45857666 138.51139404 355.45857666 139.16064453 354.58740234 C158.85005365 327.78857 169.78804403 293.83310603 170.1875 260.625 C170.23100586 259.40200195 170.23100586 259.40200195 170.27539062 258.15429688 C170.33273747 252.69752376 169.50000247 249.64762422 165.875 245.3125 C162.46042996 242.72213652 159.04217829 242.88141259 154.875 243.3125 C150.85219921 245.43775325 148.54461874 247.09073625 146.875 251.3125 C146.48531838 253.78551557 146.48531838 253.78551557 146.3828125 256.46875 C146.32005127 257.48114746 146.25729004 258.49354492 146.19262695 259.53662109 C146.12906006 260.61766113 146.06549316 261.69870117 146 262.8125 C143.04490435 304.29140582 126.02177409 340.34712316 94.875 368.3125 C65.7795536 392.83955936 27.70653636 404.56387619 -10.125 402.3125 C-50.76431774 398.71369044 -87.29355851 380.73810273 -113.70849609 349.43603516 C-137.48878653 319.86061334 -149.23679978 281.4522922 -145.88623047 243.61621094 C-142.13942038 209.25913519 -128.94207314 179.50909697 -105.125 154.3125 C-104.37863281 153.50167969 -103.63226563 152.69085938 -102.86328125 151.85546875 C-77.86496624 125.61756788 -41.7237879 111.92007483 -5.96484375 110.078125 C-5.2888916 110.04227295 -4.61293945 110.0064209 -3.91650391 109.96948242 C-2.055746 109.88064535 -0.19385879 109.81643784 1.66796875 109.75390625 C5.16331074 109.27281777 7.06842008 108.41743494 9.875 106.3125 C12.49025329 102.25434834 13.57624748 99.12105413 12.875 94.3125 C10.72521288 90.3200382 9.07986055 87.99765033 4.875 86.3125 C1.88735118 85.89652167 -1.11113457 85.97984036 -4.125 86 C-5.01002197 86.00563965 -5.89504395 86.0112793 -6.80688477 86.01708984 C-52.08197368 86.82621733 -96.98881252 108.75660331 -127.125 142.3125 Z M38.875 97.3125 C36.7116994 100.05268076 35.95147552 101.79902151 35.4375 105.25 C36.02290794 109.34785561 37.11079856 111.21120082 39.875 114.3125 C41.7586504 115.37273461 41.7586504 115.37273461 43.90625 116.234375 C44.70796631 116.57549316 45.50968262 116.91661133 46.33569336 117.26806641 C48.81749218 118.28884665 51.30047503 119.30656846 53.78515625 120.3203125 C70.82198962 127.27351934 85.35844247 135.79501047 98.875 148.3125 C99.41753418 148.81120605 99.96006836 149.30991211 100.51904297 149.82373047 C117.78289791 165.87217762 130.33551919 185.47279024 138.01245117 207.7644043 C139.94018985 213.06635559 141.60980803 215.67990401 146.875 218.3125 C151.16586329 219.53846094 153.04978068 219.69337045 157.125 217.8125 C160.49715695 214.74690277 161.7163653 212.72979481 162.875 208.3125 C162.2238325 202.06503435 159.85563113 196.34120421 157.25 190.6875 C156.89663574 189.91116211 156.54327148 189.13482422 156.17919922 188.33496094 C136.33266119 145.26225268 102.52391853 112.86644306 58.046875 95.796875 C50.2766772 93.07921961 45.68588311 91.83418098 38.875 97.3125 Z M-8.125 150.3125 C-11.20523852 153.83277259 -12.24664933 156.82857915 -12.26544189 161.46723938 C-12.27115204 162.31252197 -12.27686218 163.15780457 -12.28274536 164.02870178 C-12.28386322 164.95291428 -12.28498108 165.87712677 -12.28613281 166.8293457 C-12.29109772 167.80525665 -12.29606262 168.7811676 -12.30117798 169.78665161 C-12.31580283 173.02053529 -12.32260223 176.25436991 -12.328125 179.48828125 C-12.33387627 181.73406475 -12.339634 183.97984824 -12.34539795 186.22563171 C-12.35590891 190.93745147 -12.36175093 195.64925415 -12.36523438 200.36108398 C-12.37071871 206.3971061 -12.39474523 212.43290259 -12.42320633 218.46885395 C-12.44183508 223.10913247 -12.44703845 227.74935667 -12.44857025 232.38966942 C-12.45159685 234.61480124 -12.45962561 236.8399321 -12.47275543 239.06502724 C-12.48982024 242.17934937 -12.48793441 245.29312071 -12.48144531 248.4074707 C-12.4906601 249.3256105 -12.49987488 250.24375031 -12.5093689 251.18971252 C-12.45518392 259.49618053 -9.87883791 263.93499816 -3.98266602 269.82714844 C-3.47171387 270.34175125 -2.96076172 270.85635406 -2.43432617 271.3865509 C-0.75647683 273.0724554 0.9319131 274.74733003 2.62109375 276.421875 C3.79600794 277.5962701 4.970403 278.77118475 6.14430237 279.94659424 C8.60005607 282.40225845 11.0608748 284.85269269 13.52563477 287.29931641 C16.68270143 290.43365936 19.82853535 293.57899509 22.97088528 296.72808456 C25.39229502 299.1528367 27.81866717 301.57257182 30.24666023 303.99073029 C31.40858928 305.14881456 32.5691782 306.30824504 33.72839165 307.46904755 C35.34847521 309.08950235 36.97490916 310.70329981 38.60327148 312.31542969 C39.52687973 313.23443054 40.45048798 314.1534314 41.40208435 315.10028076 C44.20277459 317.60572038 46.29326849 319.17668048 50.05859375 319.5 C54.49968475 319.13055049 56.41621953 318.71393291 59.875 315.6875 C62.11888006 311.9009524 62.95223992 309.71517537 62.875 305.3125 C60.34461621 299.21510162 56.8398713 296.57019257 51.43457031 292.9317627 C35.20141204 281.88892918 15.81273629 267.06131355 11.54833984 246.85742188 C7.42430339 222.23485844 9.31316693 196.07788677 11.19311523 171.30090332 C11.28936203 169.95077526 11.28936203 169.95077526 11.38755322 168.57337189 C11.5097716 166.90657837 11.64626207 165.24073845 11.80038166 163.57659149 C12.21949774 157.83113159 11.06993081 154.13801866 7.4609375 149.4921875 C2.72227015 145.96736597 -3.80111776 146.62448279 -8.125 150.3125 Z " fill="#18BBCD" transform="translate(256.125,-0.3125)"/>
</svg>
